<svg id="visual" viewBox="0 0 900 600" width="900" height="600" xmlns="http://www.w3.org/2000/svg" xmlns:xlink="http://www.w3.org/1999/xlink" version="1.1"><rect x="0" y="0" width="900" height="600" fill="#140021"></rect><path d="M0 399L56 399L56 390L113 390L113 366L169 366L169 396L225 396L225 412L281 412L281 359L338 359L338 425L394 425L394 415L450 415L450 406L506 406L506 394L563 394L563 387L619 387L619 391L675 391L675 409L731 409L731 434L788 434L788 413L844 413L844 422L900 422L900 408L900 601L900 601L844 601L844 601L788 601L788 601L731 601L731 601L675 601L675 601L619 601L619 601L563 601L563 601L506 601L506 601L450 601L450 601L394 601L394 601L338 601L338 601L281 601L281 601L225 601L225 601L169 601L169 601L113 601L113 601L56 601L56 601L0 601Z" fill="#9900ff"></path><path d="M0 461L56 461L56 439L113 439L113 429L169 429L169 464L225 464L225 447L281 447L281 403L338 403L338 452L394 452L394 418L450 418L450 440L506 440L506 417L563 417L563 444L619 444L619 451L675 451L675 429L731 429L731 407L788 407L788 464L844 464L844 469L900 469L900 414L900 601L900 601L844 601L844 601L788 601L788 601L731 601L731 601L675 601L675 601L619 601L619 601L563 601L563 601L506 601L506 601L450 601L450 601L394 601L394 601L338 601L338 601L281 601L281 601L225 601L225 601L169 601L169 601L113 601L113 601L56 601L56 601L0 601Z" fill="#8800e2"></path><path d="M0 502L56 502L56 478L113 478L113 478L169 478L169 478L225 478L225 451L281 451L281 459L338 459L338 448L394 448L394 491L450 491L450 499L506 499L506 466L563 466L563 457L619 457L619 480L675 480L675 465L731 465L731 482L788 482L788 498L844 498L844 479L900 479L900 456L900 601L900 601L844 601L844 601L788 601L788 601L731 601L731 601L675 601L675 601L619 601L619 601L563 601L563 601L506 601L506 601L450 601L450 601L394 601L394 601L338 601L338 601L281 601L281 601L225 601L225 601L169 601L169 601L113 601L113 601L56 601L56 601L0 601Z" fill="#7700c6"></path><path d="M0 522L56 522L56 492L113 492L113 488L169 488L169 495L225 495L225 504L281 504L281 521L338 521L338 491L394 491L394 524L450 524L450 525L506 525L506 492L563 492L563 536L619 536L619 515L675 515L675 492L731 492L731 504L788 504L788 528L844 528L844 514L900 514L900 511L900 601L900 601L844 601L844 601L788 601L788 601L731 601L731 601L675 601L675 601L619 601L619 601L563 601L563 601L506 601L506 601L450 601L450 601L394 601L394 601L338 601L338 601L281 601L281 601L225 601L225 601L169 601L169 601L113 601L113 601L56 601L56 601L0 601Z" fill="#6600ab"></path><path d="M0 542L56 542L56 549L113 549L113 537L169 537L169 564L225 564L225 555L281 555L281 545L338 545L338 537L394 537L394 540L450 540L450 533L506 533L506 566L563 566L563 540L619 540L619 540L675 540L675 536L731 536L731 560L788 560L788 545L844 545L844 555L900 555L900 566L900 601L900 601L844 601L844 601L788 601L788 601L731 601L731 601L675 601L675 601L619 601L619 601L563 601L563 601L506 601L506 601L450 601L450 601L394 601L394 601L338 601L338 601L281 601L281 601L225 601L225 601L169 601L169 601L113 601L113 601L56 601L56 601L0 601Z" fill="#560090"></path></svg>